# xmcd
#
# Track frame offsets:
#	150
#	30473
#	72153
#	121315
#	177112
#	210232
#
# Disc length: 4024 seconds
#
# Revision: 1
# Processed by: cddbd v1.5PL3 Copyright (c) Steve Scherf et al.
# Submitted via: audiograbber 1.82.01
#
DISCID=450fb606
DTITLE=Eric Clapton - 1990-10-05 - Buenos Aires, Argentina - "Amigos" - Disc 2
DYEAR=1900
DGENRE=
TTITLE0=Eric Clapton - Badge
TTITLE1=Eric Clapton - Wonderful Tonight
TTITLE2=Eric Clapton - Band Intro - Cocaine
TTITLE3=Eric Clapton - A Remark you Made - Layla
TTITLE4=Eric Clapton - Crossroads
TTITLE5=Eric Clapton - Sunshine Of Your Love
EXTD=
EXTT0=
EXTT1=
EXTT2=
EXTT3=
EXTT4=
EXTT5=
PLAYORDER=
